<svg id="Calque_1" data-name="Calque 1" xmlns="http://www.w3.org/2000/svg" viewBox="0 0 66.29 64.56"><title>logo-black</title><path d="M11.17,37.55h0" transform="translate(-5.15 -6.33)"/><path d="M41.51,14.2a.6.6,0,0,1,.58.59.59.59,0,0,1-.59.57.57.57,0,0,1-.57-.58A.58.58,0,0,1,41.51,14.2Z" transform="translate(-5.15 -6.33)"/><path d="M43.92,13.73l1.12.15c.41,0,.66.27.61.66a.51.51,0,0,1-.4.44h0a.56.56,0,0,1,.36.65c0,.36-.34.61-.93.53L43.62,16Zm.15,2,.71.1a.34.34,0,0,0,.43-.32.34.34,0,0,0-.34-.4L44.16,15Zm.13-1,.65.08a.3.3,0,0,0,.38-.27c0-.23-.07-.33-.29-.36l-.66-.09Z" transform="translate(-5.15 -6.33)"/><path d="M47.47,14.33l.4.1-.55,2.25-.39-.09Z" transform="translate(-5.15 -6.33)"/><path d="M50.26,16.82c-.13.37-.35.72-1,.5a.65.65,0,0,1-.41-.93l0-.12.39.14,0,.11c-.09.25-.07.42.16.5s.36-.05.45-.32l.53-1.5.38.13Z" transform="translate(-5.15 -6.33)"/><path d="M53.85,18a1.1,1.1,0,0,1-1.53.58A1.22,1.22,0,1,1,53.85,18Zm-1.62-.82a.77.77,0,0,0,.23,1.11c.45.22.83-.08,1-.48a.76.76,0,0,0-.23-1.1C52.81,16.5,52.43,16.8,52.23,17.19Z" transform="translate(-5.15 -6.33)"/><path d="M55.84,17.85l.34.23-.77,1.11c-.18.26-.36.57.07.87s.65,0,.83-.25l.76-1.11.34.23-.84,1.22A1,1,0,0,1,55,19.07Z" transform="translate(-5.15 -6.33)"/><path d="M58.67,19.93l1.39,1.25-.23.26L59.28,21,58,22.41l-.3-.27L59,20.68l-.54-.49Z" transform="translate(-5.15 -6.33)"/><path d="M61.19,22.33l1.1,1.26-.26.23-.83-.95-.46.4.77.88-.25.22-.77-.88-.51.44.84,1-.26.23-1.11-1.27Z" transform="translate(-5.15 -6.33)"/><path d="M63.35,25l.61.92c.28.42.23.77-.1,1a.57.57,0,0,1-.7,0h0c.06.13.09.36-.22.56s-.41.32-.44.44l-.24-.36a.72.72,0,0,1,.25-.24c.35-.23.46-.41.26-.72l-.33-.5-.8.53-.22-.34Zm-.66.92.37.56a.34.34,0,0,0,.53.12c.24-.16.19-.35.07-.53l-.36-.55Z" transform="translate(-5.15 -6.33)"/><path d="M65.23,28l.18.36-2,1.07-.19-.36Z" transform="translate(-5.15 -6.33)"/><path d="M66.19,30l.61,1.56-.32.12L66,30.55l-.56.22.43,1.09-.31.12-.43-1.09-.63.25.47,1.2-.32.13L64,30.89Z" transform="translate(-5.15 -6.33)"/><path d="M66.9,33.93a.58.58,0,0,1-.41.71.59.59,0,0,1-.71-.42.57.57,0,0,1,.41-.7A.58.58,0,0,1,66.9,33.93Z" transform="translate(-5.15 -6.33)"/><path d="M16,45.8a.58.58,0,0,1-.45.68A.58.58,0,1,1,16,45.8Z" transform="translate(-5.15 -6.33)"/><path d="M17,47.72l.18.54-1.51,1.19h1.92l.18.53-2.19.75-.13-.36,1.7-.58h0l-1.9,0-.1-.31,1.48-1.19h0l-1.69.58-.13-.36Z" transform="translate(-5.15 -6.33)"/><path d="M18.65,51.92l.2.38-1.66,1.85-.2-.39.45-.47L17,52.46l-.64.09-.19-.38Zm-1.3.5.32.63.73-.76h0Z" transform="translate(-5.15 -6.33)"/><path d="M19.91,54.17l.62.92c.28.42.24.76-.09,1a.58.58,0,0,1-.7,0h0c.06.13.09.35-.21.56a1,1,0,0,0-.44.45l-.24-.36a.58.58,0,0,1,.25-.24c.35-.24.45-.42.24-.73L19,55.28l-.79.53L18,55.48Zm-.65.93.38.55a.34.34,0,0,0,.53.12c.24-.16.18-.36.06-.53l-.37-.54Z" transform="translate(-5.15 -6.33)"/><path d="M22.39,59.18a1.12,1.12,0,1,1,.16-1.64A1.13,1.13,0,0,1,22.39,59.18Zm-1.22-1.35a.73.73,0,1,0,1.13-.07A.77.77,0,0,0,21.17,57.83Z" transform="translate(-5.15 -6.33)"/><path d="M24.35,62.46l-.29,0L24,62.06a1.21,1.21,0,0,1-.51-.24,1.22,1.22,0,1,1,1.63-.22,1.2,1.2,0,0,1-.82.47Zm-.47-1.08.3,0,.05.37a1,1,0,0,0,.57-.37.76.76,0,0,0,0-1.13.75.75,0,0,0-1.1.22.76.76,0,0,0,0,1.13.48.48,0,0,0,.23.13Z" transform="translate(-5.15 -6.33)"/><path d="M27,61.52l.34.22-.72,1.14c-.17.26-.34.57.1.85s.65,0,.82-.27l.72-1.14.34.22-.79,1.25a1,1,0,0,1-1.6-1Z" transform="translate(-5.15 -6.33)"/><path d="M29.91,63.25l.37.18-1,2.07-.37-.18Z" transform="translate(-5.15 -6.33)"/><path d="M31.66,64.07l.41.14.4,2h0l.59-1.6.37.14-.81,2.17-.4-.15-.4-2h0l-.59,1.59-.36-.13Z" transform="translate(-5.15 -6.33)"/><path d="M34.87,65.14l1.63.37-.08.34-1.23-.28-.14.59,1.14.26-.07.33L35,66.48l-.15.67,1.25.28-.08.34-1.64-.37Z" transform="translate(-5.15 -6.33)"/><path d="M37.89,65.74l1.1.11c.5.05.74.3.7.69a.56.56,0,0,1-.44.55h0c.14,0,.33.16.29.52a1.08,1.08,0,0,0,.07.62l-.43,0a.65.65,0,0,1,0-.34c0-.43,0-.62-.4-.66l-.59-.06-.1,1-.4,0Zm.3,1.09.66.06a.34.34,0,0,0,.43-.33c0-.29-.16-.37-.37-.39l-.65-.06Z" transform="translate(-5.15 -6.33)"/><path d="M41.21,66h.4l0,2.31h-.41Z" transform="translate(-5.15 -6.33)"/><path d="M43.14,65.9l1.66-.2,0,.35-1.25.15.07.6,1.16-.14,0,.33-1.16.14.08.67,1.28-.15,0,.35-1.68.2Z" transform="translate(-5.15 -6.33)"/><path d="M46.88,65.91a.59.59,0,0,1,.69.44.58.58,0,1,1-1.13.25A.58.58,0,0,1,46.88,65.91Z" transform="translate(-5.15 -6.33)"/><polygon points="20.72 26.44 19.74 26.44 19.74 35.15 25.51 35.15 25.51 34.29 20.72 34.29 20.72 26.44"/><path d="M36,38.46a3.8,3.8,0,0,1-.11.89,2.32,2.32,0,0,1-.32.77,1.67,1.67,0,0,1-.55.54,1.55,1.55,0,0,1-.8.19,1.51,1.51,0,0,1-1.2-.4,2,2,0,0,1-.37-1.21V35.13h-.91v4.09a3.89,3.89,0,0,0,.12,1,2,2,0,0,0,.39.76,1.72,1.72,0,0,0,.71.48,2.85,2.85,0,0,0,1,.17,2.63,2.63,0,0,0,1.3-.34,2.3,2.3,0,0,0,.77-.75v.92H37V35.13H36Z" transform="translate(-5.15 -6.33)"/><rect x="33.66" y="26.44" width="0.92" height="8.71"/><path d="M45.87,35.13v3.33a3.8,3.8,0,0,1-.11.89,2.32,2.32,0,0,1-.32.77,1.67,1.67,0,0,1-.55.54,1.53,1.53,0,0,1-.8.19,1.51,1.51,0,0,1-1.2-.4,2,2,0,0,1-.37-1.21V35.13h-.91v4.09a3.89,3.89,0,0,0,.12,1,2,2,0,0,0,.39.76,1.72,1.72,0,0,0,.71.48,2.85,2.85,0,0,0,1,.17,2.63,2.63,0,0,0,1.3-.34,2.3,2.3,0,0,0,.77-.75v.92h.86V35.13Z" transform="translate(-5.15 -6.33)"/><path d="M24.9,48.6V44.77h1.65a1.64,1.64,0,0,1,1.24.47,1.93,1.93,0,0,1,.49,1.42A2.11,2.11,0,0,1,27.86,48a1.62,1.62,0,0,1-1.31.56Zm.84-3.13v2.42h.75a.9.9,0,0,0,.66-.26,1.25,1.25,0,0,0,.29-.89,1.54,1.54,0,0,0-.23-.92,1,1,0,0,0-.87-.35Z" transform="translate(-5.15 -6.33)"/><path d="M30,48.6V44.77h2.86v.7h-2v.83h1.86V47H30.81v.94h2.06v.71Z" transform="translate(-5.15 -6.33)"/><path d="M34.54,48.6V44.77h1.8c.82,0,1.23.31,1.23.95a.85.85,0,0,1-.52.8.91.91,0,0,1,.7,1,1,1,0,0,1-.42.84,1.51,1.51,0,0,1-.93.27Zm.84-3.18v.9h.86c.34,0,.51-.16.51-.46s-.19-.44-.58-.44Zm0,1.47v1h.9c.42,0,.63-.17.63-.5s-.21-.55-.61-.55Z" transform="translate(-5.15 -6.33)"/><path d="M39.25,46.7a2.08,2.08,0,0,1,.5-1.44,1.93,1.93,0,0,1,2.76,0A2,2,0,0,1,43,46.7a2,2,0,0,1-.5,1.41,1.93,1.93,0,0,1-2.76,0A2,2,0,0,1,39.25,46.7Zm.84,0a1.52,1.52,0,0,0,.24.88.92.92,0,0,0,.8.4,1,1,0,0,0,.81-.4,1.6,1.6,0,0,0,.23-.88,1.66,1.66,0,0,0-.23-.91.92.92,0,0,0-.81-.41.91.91,0,0,0-.8.41A1.58,1.58,0,0,0,40.09,46.7Z" transform="translate(-5.15 -6.33)"/><path d="M44.69,48.6V44.77h2.06a1.1,1.1,0,0,1,.82.31,1,1,0,0,1,.3.74.93.93,0,0,1-.6,1h0c.33.09.52.39.55.9l0,.46a1,1,0,0,0,.12.45h-.84a1.76,1.76,0,0,1-.09-.44l0-.48a.73.73,0,0,0-.19-.45.62.62,0,0,0-.45-.13h-.84v1.5Zm.84-3.18V46.5h.92c.39,0,.58-.18.58-.55s-.19-.53-.58-.53Z" transform="translate(-5.15 -6.33)"/><path d="M49.25,48.6l1.45-3.83h.87L53,48.6h-.88l-.29-.86H50.4l-.3.86Zm1.87-2.89-.5,1.41h1l-.48-1.41Z" transform="translate(-5.15 -6.33)"/><path d="M54.43,48.6V44.77h.84v1.47h1.55V44.77h.84V48.6h-.84V46.94H55.27V48.6Z" transform="translate(-5.15 -6.33)"/><path d="M56.34,39.77A6.35,6.35,0,0,0,56.6,39a3.79,3.79,0,0,0,.08-.94V38h-.4v.08a2.51,2.51,0,0,1-.07.84,4.5,4.5,0,0,1-.15.51l-2.12-2.67.56-.39a6.23,6.23,0,0,0,.62-.51,3.1,3.1,0,0,0,.47-.61,1.73,1.73,0,0,0,0-1.51,1.58,1.58,0,0,0-.4-.52,1.83,1.83,0,0,0-.58-.33,2.22,2.22,0,0,0-1.35,0,1.93,1.93,0,0,0-.59.3,1.55,1.55,0,0,0-.42.52,1.6,1.6,0,0,0-.16.75,1.51,1.51,0,0,0,.14.62,3.84,3.84,0,0,0,.33.59c.13.19.27.37.42.55l.34.45-.72.46a5.62,5.62,0,0,0-.75.62,2.77,2.77,0,0,0-.56.76,2.11,2.11,0,0,0-.23,1,1.91,1.91,0,0,0,.23.93,2.32,2.32,0,0,0,.57.68,2.83,2.83,0,0,0,.81.42,2.89,2.89,0,0,0,.91.15,2.6,2.6,0,0,0,1.57-.46,3.24,3.24,0,0,0,.93-1l1,1.29h.51ZM53.61,37l2.26,2.84a2.91,2.91,0,0,1-.86,1,2.26,2.26,0,0,1-1.38.41,3.07,3.07,0,0,1-.79-.11,2.14,2.14,0,0,1-.67-.35,1.73,1.73,0,0,1-.48-.56,1.62,1.62,0,0,1-.18-.77,1.78,1.78,0,0,1,.2-.85,2.75,2.75,0,0,1,.52-.67,5.31,5.31,0,0,1,.69-.54Zm-1.07-2.55a1.14,1.14,0,0,1,.11-.53,1.16,1.16,0,0,1,.31-.39,1.39,1.39,0,0,1,.45-.24,1.77,1.77,0,0,1,.56-.09,1.61,1.61,0,0,1,.54.09,1.48,1.48,0,0,1,.46.26,1.19,1.19,0,0,1,.31.39,1.32,1.32,0,0,1,.11.53,1.19,1.19,0,0,1-.18.64,2.53,2.53,0,0,1-.44.55,3.7,3.7,0,0,1-.57.46l-.5.35-.5-.66c-.16-.21-.28-.39-.38-.55a2.94,2.94,0,0,1-.22-.43h0A1.19,1.19,0,0,1,52.54,34.41Z" transform="translate(-5.15 -6.33)"/><path d="M11.85,38.46c.08-1.1.16-1.71.2-2,.08-.52.16-.89.21-1.13s.17-.65.23-.88a1.47,1.47,0,0,0,.06.14c.79,1.66,4.51-1.6,5-2.36a.12.12,0,0,0,0-.11c0-.08-.13-.09-.22-.08-.62.09-3.65.61-4.61,1.59a16.55,16.55,0,0,1,.85-2,22.11,22.11,0,0,1,1.24-2.17,1.46,1.46,0,0,0,.89.7,8.1,8.1,0,0,0,4.29,0,20.94,20.94,0,0,0,4.68-1.89c.78-.41,1.59-.83,2.36-1.32a12.41,12.41,0,0,0,1.65-1.23.58.58,0,0,0,.24-.63.61.61,0,0,0-.52-.41,15.12,15.12,0,0,0-4.66-.27,16.22,16.22,0,0,0-7,2.32l.8-1.06c.68-.89,1.38-1.81,2-2.74A26.5,26.5,0,0,0,21.37,20h0A1.4,1.4,0,0,0,23,20c.72-.39,1.42-.8,2.11-1.23a33.08,33.08,0,0,0,7.42-6.45.33.33,0,0,0,.08-.25.6.6,0,0,0-.31-.51,1.28,1.28,0,0,0-1.1,0,26.93,26.93,0,0,0-6.95,4.19c-.16.14-.35.29-.56.45s-.73.58-1.1.91a11.13,11.13,0,0,0,.49-4.17,19.51,19.51,0,0,0-2-6.37.38.38,0,0,0-.27-.21.37.37,0,0,0-.33.11,9.49,9.49,0,0,0-.62,11.84,2.46,2.46,0,0,0,1.16.93,24.41,24.41,0,0,1-2,3.32c-.45.65-.94,1.29-1.42,1.93v-.05c.1-.76.34-1.49.37-2.26a5.34,5.34,0,0,0-1.37-3.49,15.88,15.88,0,0,0-2.92-2.5l-2.61-1.91A1.78,1.78,0,0,0,10.68,16a10.76,10.76,0,0,0,1.81,4,22.34,22.34,0,0,0,3.56,4,6.66,6.66,0,0,0,1,.87l.15.08-.26.34c-1,1.34-2.06,2.72-3,4.18a6.46,6.46,0,0,0-.29-1.27A5.77,5.77,0,0,0,12,25.66,9.34,9.34,0,0,0,6,23.8a.92.92,0,0,0-.69.23c-.17.18-.31.52,0,1.08l1.79,3a9.65,9.65,0,0,0,1.24,1.78,6.27,6.27,0,0,0,3.76,1.69,2.32,2.32,0,0,0,.72-.1,18.71,18.71,0,0,0-1.43,4.65,21.9,21.9,0,0,0-.25,2.24,20.83,20.83,0,0,0-.07,2.33A30.16,30.16,0,1,0,41.28,10.56a.33.33,0,0,0-.33.33.32.32,0,0,0,.33.32A29.52,29.52,0,1,1,11.8,40.7C11.81,39.79,11.81,39,11.85,38.46Zm.3-7.57a5.47,5.47,0,0,1-3.23-1.47,9,9,0,0,1-1.15-1.65L6.49,25.61a31.41,31.41,0,0,0,3,3.22,10.87,10.87,0,0,0,2.92,2Zm-2.54-2.2a28.81,28.81,0,0,1-3.72-4.16,8.84,8.84,0,0,1,4.44,2.8,10.83,10.83,0,0,1,1.53,2.26c.21.38.43.77.67,1.15A10.12,10.12,0,0,1,9.61,28.69Zm3.16,2.08c-.27-.41-.52-.84-.75-1.26a11.23,11.23,0,0,0-1.56-2.3,9.57,9.57,0,0,0-3.91-2.68,10.49,10.49,0,0,1,1.68.2A10.09,10.09,0,0,1,13,30.64,1.07,1.07,0,0,1,12.77,30.77Zm.36-.27A10.31,10.31,0,0,0,8.8,24.86a6.93,6.93,0,0,1,2.72,1.34A5,5,0,0,1,13,28.39,2.55,2.55,0,0,1,13.13,30.5ZM28.36,25l0,.37s0,0-.05-.05Zm-.29.31a18.94,18.94,0,0,1-3.69,2.3,19.78,19.78,0,0,1-4.51,1.84,7.29,7.29,0,0,1-3.88,0c-.22-.07-.49-.21-.51-.4a.27.27,0,0,1,0-.09,2.76,2.76,0,0,0,2.05.27,40,40,0,0,0,5.61-1.94,17.46,17.46,0,0,0,2.33-1.21c.53-.31,1.07-.63,1.67-.92Q27.6,25.24,28.07,25.33Zm-1.26-.18c-.51.25-1,.53-1.43.8a17.78,17.78,0,0,1-2.31,1.19,39.26,39.26,0,0,1-5.59,1.94,2.56,2.56,0,0,1-2-.28,1.43,1.43,0,0,1,.15-.26A35.35,35.35,0,0,1,26.3,25.1Zm-9.88,2.32a15.6,15.6,0,0,1,6.91-2.35,14.08,14.08,0,0,1,1.59-.05A35.56,35.56,0,0,0,16,28.19a2.88,2.88,0,0,1,.53-.44ZM22.34,13a10.5,10.5,0,0,1-.46,3.9c-.07-2.22-.12-4.47-.15-6.69A11.7,11.7,0,0,1,22.34,13Zm-2,4.89a8.76,8.76,0,0,1-1.07-8.26,14.51,14.51,0,0,0-.21,2.79,12.94,12.94,0,0,0,.62,3.33,20,20,0,0,0,1,2.47A2.21,2.21,0,0,1,20.38,17.85Zm.92.62s0,.05,0,.08a.9.9,0,0,1-.27-.11,18.9,18.9,0,0,1-1.1-2.78,13.06,13.06,0,0,1-.61-3.28A17.61,17.61,0,0,1,19.6,8.9a8.29,8.29,0,0,1,.79-1.31c.14.89.28,1.79.34,2.69,0,.51.05,1,.06,1.52,0,.73,0,1.49.12,2.22,0,.35.09.7.14,1.06A17.1,17.1,0,0,1,21.3,18.47Zm.19-.49a19.43,19.43,0,0,0-.26-2.92c-.05-.36-.1-.72-.14-1.06-.09-.73-.1-1.48-.12-2.2,0-.5,0-1-.06-1.53-.06-1-.21-1.93-.36-2.87l0-.06c.34.76.67,1.52,1,2.3,0,2.57.07,5.17.17,7.73C21.65,17.57,21.57,17.78,21.49,18Zm1.14,1.36c-.39.21-.68.2-.76.13l0,0a67.07,67.07,0,0,1,7.51-5.48l.14-.09a11.68,11.68,0,0,0,1.78-1.26A32.23,32.23,0,0,1,22.63,19.34ZM29.4,13.7l-.15.09a67.21,67.21,0,0,0-7.4,5.39,2,2,0,0,1,.09-.26,8,8,0,0,1,2.19-2.19l.57-.46a26.47,26.47,0,0,1,6.71-4.06A10.58,10.58,0,0,1,29.4,13.7Z" transform="translate(-5.15 -6.33)"/></svg>