<svg id="Calque_1" data-name="Calque 1" xmlns="http://www.w3.org/2000/svg" viewBox="0 0 109.15 35.5"><defs><style>.cls-1{isolation:isolate;}.cls-2{fill:#18bc9c;}.cls-3{fill:#fff;}</style></defs><title>logo</title><g class="cls-1"><path class="cls-2" d="M-133.4,94.2h1.2v5.6h-1.2Z" transform="translate(133.4 -89)"/><path class="cls-2" d="M-130,100a1.27,1.27,0,0,1-.6-.1c-.2-.1-.3-.1-.5-.2a1.38,1.38,0,0,1-.3-.4.9.9,0,0,1-.1-.5h0a1.27,1.27,0,0,1,.1-.6,1.38,1.38,0,0,1,.3-.4.76.76,0,0,1,.5-.2,1.48,1.48,0,0,1,.7-.1h.6c.2,0,.3.1.5.1v-.1a1.42,1.42,0,0,0-.2-.6,1.17,1.17,0,0,0-.7-.2,1.27,1.27,0,0,0-.6.1.76.76,0,0,0-.5.2l-.2-1a1.85,1.85,0,0,1,.7-.2,2.22,2.22,0,0,1,.9-.1,2,2,0,0,1,.8.1l.6.3a.71.71,0,0,1,.3.6,2,2,0,0,1,.1.8v2.4h-1.1v-.4a1,1,0,0,1-.5.4C-129.4,99.9-129.7,100-130,100Zm.4-.9a1.45,1.45,0,0,0,.7-.2.55.55,0,0,0,.3-.5v-.2c-.1,0-.2-.1-.3-.1h-.4c-.3,0-.5,0-.6.1a.52.52,0,0,0-.2.4h0a.52.52,0,0,0,.2.4C-130,99.1-129.8,99.1-129.6,99.1Z" transform="translate(133.4 -89)"/></g><path class="cls-2" d="M-122.1,118.5a1.7,1.7,0,0,1-.7-.1,2.09,2.09,0,0,1-.6-.4,1.61,1.61,0,0,1-.4-.7,2.92,2.92,0,0,1-.2-.9h0a2.92,2.92,0,0,1,.2-.9,1.61,1.61,0,0,1,.4-.7,2.09,2.09,0,0,1,.6-.4,1.7,1.7,0,0,1,.7-.1,1.88,1.88,0,0,1,.8.2,2.18,2.18,0,0,1,.5.4v-2h1.2v5.6h-1.2v-.6a1.21,1.21,0,0,1-.5.5A1.72,1.72,0,0,1-122.1,118.5Zm.3-1a.6.6,0,0,0,.4-.1c.1-.1.2-.1.3-.2a.52.52,0,0,0,.2-.4c0-.2.1-.3.1-.5h0a.9.9,0,0,0-.1-.5c-.1-.2-.1-.3-.2-.4s-.2-.2-.3-.2-.2-.1-.4-.1-.3,0-.4.1-.2.1-.3.2a.52.52,0,0,0-.2.4c0,.2-.1.3-.1.5h0a.9.9,0,0,0,.1.5c.1.1.1.3.2.4s.2.2.3.2A.76.76,0,0,0-121.8,117.5Z" transform="translate(133.4 -89)"/><path class="cls-2" d="M-116.6,118.6a2.92,2.92,0,0,1-.9-.2,1.61,1.61,0,0,1-.7-.4,1.61,1.61,0,0,1-.4-.7,2.39,2.39,0,0,1-.2-.9h0a1.08,1.08,0,0,1,.2-.8,1.61,1.61,0,0,1,.4-.7c.2-.2.4-.3.6-.5a1.88,1.88,0,0,1,.8-.2,2.92,2.92,0,0,1,.9.2,1,1,0,0,1,.6.5,1.61,1.61,0,0,1,.4.7,2.2,2.2,0,0,1,.1.8v.3h-2.9a1.63,1.63,0,0,0,.3.6,1.45,1.45,0,0,0,.7.2.75.75,0,0,0,.5-.1c.2-.1.3-.2.5-.3l.7.6a4.35,4.35,0,0,1-.7.6A1.22,1.22,0,0,1-116.6,118.6Zm.8-2.5a.6.6,0,0,0-.3-.6,1.07,1.07,0,0,0-.6-.2,1.42,1.42,0,0,0-.6.2c-.2.2-.2.4-.3.6Z" transform="translate(133.4 -89)"/><path class="cls-2" d="M-112.3,118.5a1.49,1.49,0,0,1-.9-.2,4.05,4.05,0,0,1-.9-.5l.5-.8a1.61,1.61,0,0,0,.7.4,1.27,1.27,0,0,0,.6.1c.2,0,.3,0,.4-.1s.1-.1.1-.2h0c0-.1,0-.1-.1-.2s-.1-.1-.2-.1-.2-.1-.3-.1-.2-.1-.3-.1a.76.76,0,0,1-.4-.2c-.1-.1-.3-.1-.4-.2a1.38,1.38,0,0,1-.3-.4.75.75,0,0,1-.1-.5h0a1.27,1.27,0,0,1,.1-.6,1.38,1.38,0,0,1,.3-.4,2.19,2.19,0,0,1,.5-.3,1.27,1.27,0,0,1,.6-.1,2.2,2.2,0,0,1,.8.1,1.61,1.61,0,0,1,.7.4l-.4.8-.6-.3a1.09,1.09,0,0,0-.5-.1c-.1,0-.3,0-.3.1s-.1.1-.1.2h0c0,.1,0,.1.1.1a.35.35,0,0,0,.2.1c.1,0,.2.1.3.1s.2.1.3.1a.76.76,0,0,1,.4.2c.1.1.3.1.4.2l.3.3a.75.75,0,0,1,.1.5h0a1.27,1.27,0,0,1-.1.6,1.38,1.38,0,0,1-.3.4.76.76,0,0,1-.5.2C-111.9,118.5-112.1,118.5-112.3,118.5Z" transform="translate(133.4 -89)"/><g class="cls-1"><path class="cls-3" d="M-118.8,92.2h-4.9V89h13.3v3.3h-4.9V105h-3.5Z" transform="translate(133.4 -89)"/><path class="cls-3" d="M-105,105.3a7.51,7.51,0,0,1-2.6-.5,6,6,0,0,1-2.1-1.4,5.58,5.58,0,0,1-1.4-2,7,7,0,0,1-.5-2.5h0a7,7,0,0,1,.5-2.5,5.58,5.58,0,0,1,1.4-2,7.71,7.71,0,0,1,2.1-1.4,7.63,7.63,0,0,1,2.7-.5,7.51,7.51,0,0,1,2.6.5,6,6,0,0,1,2.1,1.4,5.58,5.58,0,0,1,1.4,2,7,7,0,0,1,.5,2.5h0a7,7,0,0,1-.5,2.5,5.58,5.58,0,0,1-1.4,2,7.71,7.71,0,0,1-2.1,1.4A8.57,8.57,0,0,1-105,105.3Zm0-3a2.5,2.5,0,0,0,1.3-.3,3.59,3.59,0,0,0,1-.7,2.38,2.38,0,0,0,.6-1.1,5.07,5.07,0,0,0,.2-1.3h0a5.07,5.07,0,0,0-.2-1.3,2.59,2.59,0,0,0-.7-1.1,2.29,2.29,0,0,0-1-.7,2.77,2.77,0,0,0-1.3-.3,2.5,2.5,0,0,0-1.3.3,3.59,3.59,0,0,0-1,.7,2.38,2.38,0,0,0-.6,1.1,5.07,5.07,0,0,0-.2,1.3h0a5.07,5.07,0,0,0,.2,1.3,2.59,2.59,0,0,0,.7,1.1,2.29,2.29,0,0,0,1,.7A2.77,2.77,0,0,0-105,102.3Z" transform="translate(133.4 -89)"/><path class="cls-3" d="M-87,103.3a4,4,0,0,1-1.5,1.4,4.14,4.14,0,0,1-2.3.6,5.22,5.22,0,0,1-2.1-.4,5.67,5.67,0,0,1-1.8-1.2,5.61,5.61,0,0,1-1.2-2,7.63,7.63,0,0,1-.5-2.7h0a7.63,7.63,0,0,1,.5-2.7,5.61,5.61,0,0,1,1.2-2,4.39,4.39,0,0,1,1.8-1.2,5.22,5.22,0,0,1,2.1-.4,5.21,5.21,0,0,1,2.3.5A6.39,6.39,0,0,1-87,94.5V92.9h3.5v16H-87Zm-2.9-1a5,5,0,0,0,1.2-.2,2.18,2.18,0,0,0,.9-.7,2.38,2.38,0,0,0,.6-1.1,3.18,3.18,0,0,0,.2-1.4h0a5.9,5.9,0,0,0-.2-1.4,10.91,10.91,0,0,0-.6-1.1,5.5,5.5,0,0,0-.9-.7,2.34,2.34,0,0,0-1.2-.2,5,5,0,0,0-1.2.2,3.59,3.59,0,0,0-1,.7,4.13,4.13,0,0,0-.7,1.1,3.18,3.18,0,0,0-.2,1.4h0a5.9,5.9,0,0,0,.2,1.4,4.13,4.13,0,0,0,.7,1.1,3.59,3.59,0,0,0,1,.7A5,5,0,0,0-89.9,102.3Z" transform="translate(133.4 -89)"/><path class="cls-3" d="M-76.3,105.3a4,4,0,0,1-3.1-1.2,4.86,4.86,0,0,1-1.1-3.3v-8H-77v6.8a2.88,2.88,0,0,0,.6,1.9,2.11,2.11,0,0,0,1.6.6,2.11,2.11,0,0,0,1.6-.6,2.55,2.55,0,0,0,.6-1.9V92.8h3.5V105h-3.5v-1.8a5,5,0,0,1-.7.8,2.41,2.41,0,0,1-.8.6,3,3,0,0,1-1,.4A4.22,4.22,0,0,1-76.3,105.3Z" transform="translate(133.4 -89)"/><path class="cls-3" d="M-60.2,105.3a7.51,7.51,0,0,1-2.6-.5,4.64,4.64,0,0,1-2-1.3,5.33,5.33,0,0,1-1.3-2,7.08,7.08,0,0,1-.5-2.6h0a6.9,6.9,0,0,1,.4-2.5,5.61,5.61,0,0,1,1.2-2A6.69,6.69,0,0,1-63.1,93a6.55,6.55,0,0,1,2.5-.5,7.63,7.63,0,0,1,2.7.5A7,7,0,0,1-56,94.5a5.29,5.29,0,0,1,1.1,2.1,10.05,10.05,0,0,1,.4,2.5v.9h-8.6a3.17,3.17,0,0,0,1,1.8,3.17,3.17,0,0,0,2,.6,4.15,4.15,0,0,0,1.6-.3,4.06,4.06,0,0,0,1.4-1l2,1.8a6.84,6.84,0,0,1-2.1,1.7A6.3,6.3,0,0,1-60.2,105.3Zm2.2-7.4a3.67,3.67,0,0,0-.8-1.9,2.14,2.14,0,0,0-1.8-.7,2.27,2.27,0,0,0-1.8.7,3.75,3.75,0,0,0-.9,1.9Z" transform="translate(133.4 -89)"/></g><path class="cls-3" d="M-96,124.5a8.81,8.81,0,0,1-3.3-.6,6.77,6.77,0,0,1-2.6-1.8,9,9,0,0,1-1.7-2.6,8.66,8.66,0,0,1-.6-3.2v-.1a8.29,8.29,0,0,1,.6-3.2,7.82,7.82,0,0,1,1.7-2.6,10,10,0,0,1,2.6-1.8,9.37,9.37,0,0,1,3.4-.7,13.61,13.61,0,0,1,2.1.2,6.87,6.87,0,0,1,1.7.5,6.38,6.38,0,0,1,1.4.8,10.59,10.59,0,0,1,1.2,1l-2.2,2.6a7.16,7.16,0,0,0-1.9-1.3,5.09,5.09,0,0,0-2.2-.5,4.06,4.06,0,0,0-1.9.4,4.18,4.18,0,0,0-1.5,1.1,8.64,8.64,0,0,0-1,1.6,5.82,5.82,0,0,0-.3,1.9v.1a5.82,5.82,0,0,0,.3,1.9,6.08,6.08,0,0,0,.9,1.6,4.18,4.18,0,0,0,1.5,1.1,4.06,4.06,0,0,0,1.9.4,5.21,5.21,0,0,0,2.3-.5,7.71,7.71,0,0,0,1.9-1.4l2.2,2.3a15.38,15.38,0,0,1-1.3,1.2,5.43,5.43,0,0,1-1.5.9c-.5.2-1.1.4-1.7.6C-94.5,124.4-95.2,124.5-96,124.5Z" transform="translate(133.4 -89)"/><path class="cls-3" d="M-87,107.5h3.5v6.2a5,5,0,0,1,.7-.8,5.55,5.55,0,0,1,.8-.6,3,3,0,0,1,1-.4,5,5,0,0,1,1.2-.2,4,4,0,0,1,3.1,1.2,4.86,4.86,0,0,1,1.1,3.3v8h-3.5v-6.8a2.88,2.88,0,0,0-.6-1.9,2.11,2.11,0,0,0-1.6-.6,2.11,2.11,0,0,0-1.6.6,2.55,2.55,0,0,0-.6,1.9v6.8H-87Z" transform="translate(133.4 -89)"/><path class="cls-3" d="M-66.8,124.5a7.51,7.51,0,0,1-2.6-.5,4.64,4.64,0,0,1-2-1.3,6.9,6.9,0,0,1-1.3-2,7.08,7.08,0,0,1-.5-2.6V118a10.05,10.05,0,0,1,.4-2.5,4.48,4.48,0,0,1,1.2-2,9.35,9.35,0,0,1,1.9-1.4,6.55,6.55,0,0,1,2.5-.5,6,6,0,0,1,2.7.6,5.75,5.75,0,0,1,1.9,1.5,5.29,5.29,0,0,1,1.1,2.1,10.05,10.05,0,0,1,.4,2.5v.9h-8.6a3.17,3.17,0,0,0,1,1.8,3.17,3.17,0,0,0,2,.6,4.15,4.15,0,0,0,1.6-.3,4.06,4.06,0,0,0,1.4-1l2,1.8a6.84,6.84,0,0,1-2.1,1.7A6.3,6.3,0,0,1-66.8,124.5Zm2.2-7.4a3.67,3.67,0,0,0-.8-1.9,2.14,2.14,0,0,0-1.8-.7,2.41,2.41,0,0,0-1.8.7,3.1,3.1,0,0,0-.9,1.9Z" transform="translate(133.4 -89)"/><path class="cls-3" d="M-58,114.9h-1.4V112H-58v-.8a4,4,0,0,1,1-3,4,4,0,0,1,2.8-1,5.72,5.72,0,0,1,1.4.1,5.16,5.16,0,0,0,1.1.2v2.9a2.35,2.35,0,0,0-.8-.2,2,2,0,0,0-.8-.1,1.16,1.16,0,0,0-1.3,1.3v.5h2.8v2.8h-2.8V124H-58v-9.1Z" transform="translate(133.4 -89)"/><path class="cls-3" d="M-45.5,124.4a12.59,12.59,0,0,1-2.7-.4,9.39,9.39,0,0,1-2.6-1.4l1.5-2.3a6.64,6.64,0,0,0,2,1.1,7.19,7.19,0,0,0,1.9.4,2.68,2.68,0,0,0,1.1-.2,1,1,0,0,0,.4-.7v-.1c0-.2-.1-.3-.2-.5a1.54,1.54,0,0,0-.6-.4,6.89,6.89,0,0,0-.8-.3c-.3-.1-.6-.2-1-.3s-.9-.3-1.3-.4a3.75,3.75,0,0,1-1.2-.7,4.3,4.3,0,0,1-.9-1,2.39,2.39,0,0,1-.3-1.5v-.1a3.29,3.29,0,0,1,.4-1.7,4,4,0,0,1,1-1.2,6.38,6.38,0,0,1,1.4-.8,5,5,0,0,1,1.8-.2,6.72,6.72,0,0,1,2.4.4,8.75,8.75,0,0,1,2.2,1l-1.3,2.4a14.17,14.17,0,0,0-1.8-.8,4.94,4.94,0,0,0-1.5-.3,2.51,2.51,0,0,0-1,.2.86.86,0,0,0-.3.6v.1a.52.52,0,0,0,.2.4,5.92,5.92,0,0,0,.6.4,2.61,2.61,0,0,0,.8.3l.9.3a6.94,6.94,0,0,1,1.3.5,7.46,7.46,0,0,1,1.2.7,4.3,4.3,0,0,1,.9,1,2.23,2.23,0,0,1,.3,1.4v.1a3.42,3.42,0,0,1-.4,1.8,4,4,0,0,1-1,1.2,3.48,3.48,0,0,1-1.5.7A6.8,6.8,0,0,1-45.5,124.4Z" transform="translate(133.4 -89)"/><path class="cls-2" d="M-33.4,108.8a2,2,0,0,1-1.5-.6,14.64,14.64,0,0,0-4.2-3.2,14.08,14.08,0,0,0-5.7-1.4,2.2,2.2,0,0,1-1.6-.9,1.92,1.92,0,0,1-.1-1.8l1.2-2.6a5.43,5.43,0,0,1-1.9-2.8,5.32,5.32,0,0,1,.8-4.4A4.94,4.94,0,0,1-41,89.2,5.26,5.26,0,0,1-38.2,91a5.19,5.19,0,0,1,5.6-.8,5.28,5.28,0,0,1,3,4.8,5.5,5.5,0,0,1,3.2,1h0a5.16,5.16,0,0,1,2,5.4,5.47,5.47,0,0,1-2.8,3.5,5.75,5.75,0,0,1-3.4.4l-1.2,2.6a1.92,1.92,0,0,1-1.5,1.1C-33.3,108.8-33.4,108.8-33.4,108.8Zm-11-7.3a16.73,16.73,0,0,1,6.2,1.6,17.17,17.17,0,0,1,4.6,3.4l1.9-4.1,1,.5a3,3,0,0,0,2.6,0,3,3,0,0,0,1.6-2,2.91,2.91,0,0,0-1.2-3.1h0a3.07,3.07,0,0,0-2.8-.4,1.31,1.31,0,0,1-1.2-.3,1.31,1.31,0,0,1-.3-1.2,3,3,0,0,0-1.6-3.7,3,3,0,0,0-3.8,1.1,1,1,0,0,1-1.1.5,1.2,1.2,0,0,1-1-.7,3.31,3.31,0,0,0-2.1-1.9,3.18,3.18,0,0,0-3.2,1.1,3.05,3.05,0,0,0-.5,2.6,3,3,0,0,0,1.6,2l1,.5Z" transform="translate(133.4 -89)"/><path class="cls-2" d="M-35.5,112.2a1.2,1.2,0,0,1-.8-.2,11.33,11.33,0,0,1-2-1.3A17.77,17.77,0,0,0-41,109a21.66,21.66,0,0,0-3.6-1.2,15.46,15.46,0,0,1-2.3-.7c-1.5-.7-.8-2.9-.6-3.7.2-.5.5-1.4,1-2.5a1.05,1.05,0,0,1,1.4-.5,1.05,1.05,0,0,1,.5,1.4,11.09,11.09,0,0,0-1.2,3.5c.5.2,1,.3,1.6.5a24.24,24.24,0,0,1,4,1.4,19.58,19.58,0,0,1,3,1.9,8,8,0,0,0,1.4.9,12,12,0,0,0,1.9-3.1,1.05,1.05,0,0,1,1.4-.5,1.05,1.05,0,0,1,.5,1.4C-33.2,110.7-34.4,112.1-35.5,112.2Zm-10.2-6.8Z" transform="translate(133.4 -89)"/><path class="cls-2" d="M-38.9,105a.9.9,0,0,1-.5-.1,1.05,1.05,0,0,1-.5-1.4l1.6-3.4a1.05,1.05,0,0,1,1.4-.5,1.05,1.05,0,0,1,.5,1.4l-1.6,3.4A1.15,1.15,0,0,1-38.9,105Z" transform="translate(133.4 -89)"/><path class="cls-2" d="M-35.8,106.4a.9.9,0,0,1-.5-.1,1.05,1.05,0,0,1-.5-1.4l1.1-2.4a1.05,1.05,0,0,1,1.4-.5,1.05,1.05,0,0,1,.5,1.4l-1.1,2.4A1,1,0,0,1-35.8,106.4Z" transform="translate(133.4 -89)"/><path class="cls-2" d="M-42,103.5a.9.9,0,0,1-.5-.1A1.05,1.05,0,0,1-43,102l1.1-2.4a1.05,1.05,0,0,1,1.4-.5,1.05,1.05,0,0,1,.5,1.4l-1.1,2.4A1,1,0,0,1-42,103.5Z" transform="translate(133.4 -89)"/></svg>